<svg xmlns="http://www.w3.org/2000/svg" viewBox="0 0 200 220" fill="none">
  <!-- Fedora hat brim -->
  <ellipse cx="100" cy="72" rx="72" ry="16" fill="#1a1a1a"/>
  <!-- Fedora hat crown -->
  <path d="M52 72 Q48 30 100 22 Q152 30 148 72 Z" fill="#1a1a1a"/>
  <!-- Hat crease -->
  <path d="M100 22 Q100 50 100 60" stroke="#333" stroke-width="3" fill="none"/>
  <!-- Face/mask (white) -->
  <ellipse cx="100" cy="110" rx="34" ry="40" fill="#f5f5f5"/>
  <!-- Sunglasses left -->
  <ellipse cx="87" cy="104" rx="13" ry="8" fill="#1a1a1a"/>
  <!-- Sunglasses right -->
  <ellipse cx="113" cy="104" rx="13" ry="8" fill="#1a1a1a"/>
  <!-- Sunglasses bridge -->
  <rect x="97" y="102" width="6" height="4" fill="#1a1a1a"/>
  <!-- Trench coat left -->
  <path d="M66 140 L30 220 L100 200 Z" fill="#1a1a1a"/>
  <!-- Trench coat right -->
  <path d="M134 140 L170 220 L100 200 Z" fill="#1a1a1a"/>
  <!-- Collar left -->
  <path d="M66 140 L85 170 L100 200 Z" fill="#1a1a1a"/>
  <!-- Collar right -->
  <path d="M134 140 L115 170 L100 200 Z" fill="#1a1a1a"/>
</svg>
